<svg width="256" height="29" viewBox="0 0 256 29" fill="none" xmlns="http://www.w3.org/2000/svg">
<path d="M51.3 0L48.5 4.93793H45.8L44.9 6.34876H47.7L41.6 16.8293C40.3 19.0463 41.2 21.0618 43.7 21.0618C45.5 21.0618 47.4 19.7517 49.3 17.9378C49.3 21.7672 54.6 22.4726 57.9 18.4416H58.6C60.4 18.4416 63.2 17.3331 64.8 15.5192C64.6 15.1161 64.1 14.6122 63.7 14.5115L63.5 14.713C62.1 16.2246 60.5 16.93 58.9 16.93L61.7 12.0929C63.5 8.96888 61.8 5.94567 59 5.94567C56.7 5.94567 54.9 6.85263 53.1 9.87585L51.6 12.496L50.4 14.6122L50.2 14.8138C48 17.3331 45.9 19.3486 44.6 19.3486C43.9 19.3486 43.6 18.8447 44.3 17.7362L50.8 6.44954H53.3L54 4.93793H51.5L54.3 0H51.3ZM58.8 7.86037C59.8 7.96115 60.2 9.17044 59.2 10.8836L57 14.6122H56.9C55.9 14.6122 55.1 15.4184 55.1 16.4262C55.1 16.8293 55.2 17.1316 55.4 17.4339V17.5347C54 19.9532 50.5 19.5502 52.3 16.4262L54.6 12.496L56.1 10.0774C57 8.46501 58.1 7.86037 58.8 7.86037ZM80.8 0L78 4.93793H75.3L74.4 6.34876H77.2L71 16.8293C69.7 19.0463 70.6 21.0618 73.1 21.0618C74.3 21.0618 75.6 20.4571 77 19.4494L76.2 20.7594H79.2L83.8 12.7983C88.4 6.95341 90.5 7.7596 89.2 9.97663L85.3 16.7285C84 18.9455 84.9 20.961 87.4 20.961C89.2 20.961 91.2 19.5502 93.1 17.7362C93.2 19.6509 94.8 20.961 97.2 20.961C100.6 20.961 104 18.3409 106.5 15.4184C106.3 15.0153 105.8 14.5115 105.4 14.4107L105.2 14.6122C103 17.1316 100.2 19.1471 98.1 19.1471C96.2 19.1471 95.1 18.0385 96.5 15.5192L96.8 15.0153C98.7 15.8215 102.4 15.4184 104.7 11.589L105.1 10.8836C106.7 8.06192 105.2 6.04644 102.7 6.04644C100.3 6.04644 98.3 7.3565 97 9.47276L94.1 14.5115L93.9 14.713C91.7 17.2323 89.6 19.2478 88.3 19.2478C87.6 19.2478 87.3 18.744 87.9 17.6354L92.3 10.0774C93.6 7.7596 92.4 6.14721 90.7 6.14721C89.4 6.14721 88 6.85263 86.5 8.46502L91.3 0.100776H88.3L79.9 14.6122L79.7 14.8138C77.5 17.3331 75.4 19.3486 74.1 19.3486C73.4 19.3486 73.1 18.8447 73.8 17.7362L80.3 6.44954H82.8L83.7 5.0387H81.2L84 0.100776L80.8 0ZM102.1 8.26347C103.1 8.1627 103.6 9.17044 102.6 10.8836L102.2 11.589C100.8 14.0076 98.8 14.0076 97.7 13.6045L99.6 10.1782C100.3 8.96888 101.3 8.36424 102.1 8.26347ZM146.4 2.82167C144.7 4.33328 144.5 6.04644 145.6 7.45728L145.9 7.7596C144.6 9.6743 142.8 12.1937 140.8 14.5115L140.6 14.713C139.2 16.2246 137.6 16.93 136 16.93L138.8 12.0929C140.6 8.96888 138.9 5.94567 136.1 5.94567C133.8 5.94567 132 6.85263 130.2 9.87585L128.7 12.496L127.5 14.6122L127.3 14.8138C124.8 17.6355 122.7 19.5502 120.3 20.5579L127.1 9.06966H125.3C125.3 7.86037 124 6.14721 122.1 6.14721C120.5 6.14721 118.2 7.45727 116.9 9.57353L112.7 16.8293C111.4 19.0463 112.3 21.0618 114.8 21.0618C115.6 21.0618 116.7 20.6587 117.7 20.054L116.9 21.4649C112.8 22.6741 110.3 24.3873 110.3 26.6043C110.3 29.5268 114.7 30.1314 116.9 26.4028L119.2 22.4726C121.6 21.7672 124 20.3563 126.4 17.9378C126.4 21.7672 131.7 22.5734 135 18.4416H135.7C137.5 18.4416 140.3 17.3331 141.9 15.5192C143.3 13.806 144.5 12.2944 146.9 9.06966L147.3 9.57353C147.7 10.0774 147.8 10.682 147.5 11.2867L144.3 16.8293C143 19.0463 143.9 21.0618 146.4 21.0618C147.9 21.0618 149.6 20.054 151.2 18.6432C151.1 20.054 152.1 21.0618 153.8 21.0618C154.6 21.0618 155.7 20.6587 156.7 20.054L155.9 21.4649C151.8 22.6741 149.3 24.3873 149.3 26.6043C149.3 29.5268 153.7 30.1314 155.9 26.4028L158.2 22.4726C160.7 21.6664 163.1 20.2556 165.6 17.837C165.7 19.7517 167.3 21.0618 169.7 21.0618C172.2 21.0618 174.6 19.6509 176.7 17.837C176.6 21.7672 182 22.5734 185.3 18.4416H186C186.9 18.4416 188.2 18.1393 189.4 17.5347C188.6 19.6509 189.3 21.0618 191.1 21.0618C192.8 21.0618 194.6 19.5502 196.1 18.1393C195.8 19.7517 196.8 21.0618 198.7 21.0618C201.2 21.0618 204.1 18.4416 206.6 15.5192C208.3 13.5037 209.8 11.4882 210.9 10.0774C209.7 13.2014 210.3 18.8447 207.5 18.8447C206.5 18.8447 206.1 17.7362 206.1 17.7362L204.2 18.744C204.2 18.744 204.8 21.1625 207.5 21.1625C207.8 21.1625 208.1 21.1625 208.3 21.0618H208.4C211.5 20.6587 214.5 18.2401 216.8 15.62C216.6 15.1161 216.1 14.713 215.7 14.6122L215.5 14.8138C214.4 16.0231 213.2 17.1316 211.9 18.0385C212.9 15.2169 212.7 10.7828 214.5 6.95341L212.2 5.74412C211 7.45728 208.2 11.3875 205.5 14.5115L205.3 14.713C203.1 17.2323 201 19.2478 199.7 19.2478C199 19.2478 198.7 18.744 199.4 17.6354L205.8 6.34876H202.8L197.4 15.7207C195.1 17.837 193.3 18.9455 192.8 18.744C192 18.4416 192.8 17.3331 193.2 16.6277L199.1 6.34876H196.1L191.4 14.5115L191.2 14.713C189.8 16.2246 188.2 16.93 186.6 16.93L189.4 12.0929C191.2 8.96888 189.5 5.94567 186.7 5.94567C184.4 5.94567 182.6 6.85263 180.8 9.87585L179.3 12.496L178.1 14.6122L177.9 14.8138C175.7 17.3331 172.9 19.3486 170.8 19.3486C168.9 19.3486 167.8 18.2401 169.2 15.7207L169.5 15.2169C171.4 16.0231 175.1 15.62 177.4 11.7906L177.8 11.0851C179.4 8.26347 177.9 6.24799 175.4 6.24799C173 6.24799 171 7.55805 169.7 9.6743L166.8 14.713L166.6 14.9146C164.1 17.7362 162 19.6509 159.6 20.6587L166.4 9.17043H164.6C164.6 7.96114 163.3 6.24799 161.4 6.24799C159.8 6.24799 157.5 7.55805 156.2 9.6743L153.3 14.6122L153.1 14.8138C150.9 17.3331 148.8 19.3486 147.5 19.3486C146.8 19.3486 146.5 18.8447 147.2 17.7362L150.2 12.496C151.2 10.682 150.8 9.57353 149.8 8.46502L148.1 6.44954C147.7 5.94567 147.7 5.34102 148.3 4.73638L146.4 2.82167ZM136.1 7.86037C137.1 7.96115 137.6 9.17044 136.5 10.8836L134.3 14.6122H134.2C133.2 14.6122 132.4 15.4184 132.4 16.4262C132.4 16.8293 132.5 17.1316 132.7 17.4339V17.5347C131.3 19.9532 127.8 19.5502 129.6 16.4262L131.9 12.496L133.4 10.0774C134.3 8.46501 135.3 7.86037 136.1 7.86037ZM186.3 7.86037C187.3 7.96115 187.8 9.17044 186.7 10.8836L184.5 14.6122H184.4C183.4 14.6122 182.6 15.4184 182.6 16.4262C182.6 16.8293 182.7 17.1316 182.9 17.4339V17.5347C181.5 19.9532 178 19.5502 179.8 16.4262L182.1 12.496L183.6 10.0774C184.4 8.46501 185.5 7.86037 186.3 7.86037ZM174.6 8.26347C175.6 8.1627 176.1 9.17044 175.1 10.8836L174.7 11.589C173.2 14.0076 171.3 14.0076 170.2 13.6045L172.1 10.1782C172.8 8.96888 173.8 8.36424 174.6 8.26347ZM122.2 8.46502C123.2 8.46502 123.9 9.37198 123 10.8836L120.7 14.9146C118.9 17.837 117 19.2478 115.8 19.2478C115.1 19.2478 114.8 18.744 115.5 17.6354L119.7 10.279C120.4 9.06966 121.4 8.46502 122.2 8.46502ZM161.1 8.46502C162.1 8.46502 162.8 9.37198 161.9 10.8836L159.6 14.9146C157.8 17.837 155.9 19.2478 154.7 19.2478C154 19.2478 153.7 18.744 154.4 17.6354L158.6 10.279C159.3 9.06966 160.3 8.46502 161.1 8.46502ZM115.8 23.4803L114.4 25.8989C113.8 27.0074 112.7 26.8059 112.7 25.9997C112.7 25.2943 113.5 24.3873 115.8 23.4803ZM154.7 23.4803L153.3 25.8989C152.7 27.0074 151.6 26.8059 151.6 25.9997C151.7 25.2943 152.4 24.3873 154.7 23.4803ZM0 11.7906H28.9V13.7053H0V11.7906ZM227.1 11.7906H256V13.7053H227.1V11.7906Z" fill="#766458"/>
</svg>
